<?xml version="1.0" encoding="iso-8859-1"?>
<!-- Generator: Adobe Illustrator 19.0.0, SVG Export Plug-In . SVG Version: 6.00 Build 0)  -->
<svg version="1.1" id="Capa_1" xmlns="http://www.w3.org/2000/svg" xmlns:xlink="http://www.w3.org/1999/xlink" x="0px" y="0px"
	 viewBox="0 0 512 512" style="enable-background:new 0 0 512 512;" xml:space="preserve">
<path style="fill:#D63030;" d="M504.673,232.525l0.027,0.137c2.145,10.862-4.925,21.398-15.776,23.541l-165.811,32.744
	l-7.792-39.456l165.811-32.744C491.984,214.606,502.528,221.664,504.673,232.525z"/>
<path style="fill:#F44545;" d="M504.673,232.525l0.014,0.069l-92.71,18.308c-12.297,2.429-24.301-3.902-29.551-14.661l98.706-19.492
	C491.984,214.606,502.528,221.664,504.673,232.525z"/>
<path style="fill:#5A5555;" d="M361.445,216.773l0.074,0.374c2.549,12.906,2.392,25.713-0.094,37.846
	c-7.52,36.852-36.425,67.407-75.634,75.15l-164.455,32.476C69.222,372.911,18.632,339.007,8.34,286.892l-0.074-0.374
	c-1.073-5.435,2.463-10.698,7.888-11.771l333.519-65.863C355.1,207.814,360.371,211.338,361.445,216.773z"/>
<path style="fill:#736E6E;" d="M361.445,216.773l0.074,0.374c2.549,12.906,2.392,25.713-0.094,37.846
	c-11.936,9.894-26.435,17.047-42.712,20.261l-164.445,32.474c-39.229,7.747-77.581-9.547-98.541-40.795l293.947-58.048
	C355.1,207.814,360.371,211.338,361.445,216.773z"/>
<path style="fill:#EBE1DC;" d="M40.666,44.237c-2.036-8.299,1.017-17.369,8.401-22.627c9.665-6.882,23.08-4.627,29.963,5.039
	c6.882,9.665,4.627,23.08-5.039,29.963c-0.798,0.568-1.626,1.062-2.469,1.507l35.133,49.338c3.19,4.481,2.135,10.756-2.345,13.947
	l-11.54,8.218c-4.48,3.19-10.756,2.135-13.947-2.345L43.691,77.936c-0.696,0.651-1.433,1.272-2.231,1.841
	c-9.666,6.882-23.08,4.627-29.963-5.039s-4.627-23.08,5.039-29.963C23.92,39.516,33.489,39.598,40.666,44.237z"/>
<path style="fill:#6E9213;" d="M220.772,113.408c-17.055,14.454-19.164,39.997-4.709,57.051
	c14.454,17.055,39.997,19.163,57.051,4.709c8.68-7.355,13.478-17.584,14.203-28.103c4.402-1.146,8.622-3.274,12.326-6.412
	c13.187-11.176,14.817-30.926,3.641-44.113s-30.926-14.817-44.113-3.642c-3.703,3.138-6.493,6.952-8.347,11.107
	C240.327,102.995,229.45,106.052,220.772,113.408z"/>
<g>
	<circle style="fill:#D63030;" cx="185.134" cy="49.968" r="23.656"/>
	<circle style="fill:#D63030;" cx="43.067" cy="216.214" r="23.656"/>
</g>
<path style="fill:#F77026;" d="M170.566,190.74c-2.565,7.124-6.923,13.215-13.055,17.584c-20.048,14.277-51.448,4.579-70.144-21.661
	c-18.686-26.25-30.158-80.835-10.099-95.102c6.392-4.549,15.199-4.459,24.858-1.373c20.65,6.603,45.116,26.891,57.851,44.766
	C172.951,153.178,176.388,174.579,170.566,190.74z"/>
<path style="fill:#FF883E;" d="M170.566,190.74c-16.852-0.25-35.388-10.45-48.062-28.244
	c-12.905-18.125-22.363-49.765-20.379-72.308c20.65,6.603,45.116,26.891,57.851,44.766
	C172.951,153.178,176.388,174.579,170.566,190.74z"/>
<path style="fill:#FB5858;" d="M326.986,402.916H179.213c-2.284-2.906-4.288-6.092-5.981-9.468
	c-5.731-11.332-8.106-24.828-6.813-37.472c2.395-23.325,14.277-44.345,26.631-64.413c1.453-2.355,4.879-2.334,6.292,0.04
	c8.136,13.676,16.271,27.342,24.407,41.008c6.252-5.711,11.201-12.825,14.448-20.65c1.182-2.855,5.24-3.016,6.633-0.24
	c6.663,13.245,7.144,29.597,0.842,43.062c19.577-15.359,35.127-35.829,44.665-58.823c1.773-4.278,5.19-9.598,9.568-8.095
	c7.474,2.545,33.344,46.429,13.396,90.153c13.656-6.583,25.659-16.542,34.706-28.715c1.874-2.515,5.791-1.703,6.533,1.343
	C359.288,370.184,346.143,392.617,326.986,402.916z"/>
<path style="fill:#FF883E;" d="M323.91,402.916H179.213c-2.284-2.906-4.288-6.092-5.981-9.468c0.01-0.24,0.04-0.491,0.06-0.731
	c2.104-20.439,12.514-38.854,23.345-56.448c1.272-2.064,4.268-2.044,5.511,0.04c7.134,11.973,8.647,22.333,15.78,34.316
	c5.47-5.02,10.63-18.51,13.466-25.364c1.042-2.515,4.599-2.645,5.821-0.22c5.841,11.612,11.061,34.832,5.531,46.634
	c17.163-13.466,30.789-31.4,39.145-51.549c1.553-3.747,4.549-8.416,8.386-7.094c6.553,2.224,19.107,27.322,1.623,65.646
	c11.973-5.771,29.597-11.883,37.532-22.553c1.633-2.204,5.07-1.493,5.721,1.182C336.875,384.391,331.725,393.739,323.91,402.916z"/>
<path style="fill:#D63030;" d="M392.284,471.021v22.635c0,3.904-3.169,7.074-7.074,7.074H126.79c-3.904,0-7.074-3.169-7.074-7.074
	v-22.635c0-3.904,3.169-7.074,7.074-7.074h258.422C389.115,463.947,392.284,467.116,392.284,471.021z"/>
<path style="fill:#F44545;" d="M392.284,478.094v15.562c0,3.904-3.169,7.074-7.074,7.074H144.237v-15.562
	c0-3.904,3.169-7.074,7.074-7.074H392.284z"/>
<path d="M479.067,209.226l-31.961,6.332c-4.078,0.812-6.723,4.759-5.911,8.837c0.802,4.068,4.759,6.703,8.827,5.911
	c33.847-6.63,32.334-6.583,34.416-6.583c5.951,0,11.111,4.248,12.263,10.089l0.03,0.15c1.347,6.819-3.103,13.39-9.849,14.718
	l-123.587,24.477c3.326-8.596,5.521-17.654,6.462-26.952l50.777-10.059c4.078-0.812,6.723-4.769,5.911-8.837
	c-0.802-4.068-4.759-6.713-8.827-5.911l-47.471,9.398c-0.408-8.279-1.66-13.865-1.934-15.57
	c-1.623-8.186-8.857-14.127-17.193-14.127c-3.207,0,12.995-2.794-257.533,50.677c-4.078,0.802-6.723,4.759-5.911,8.827
	c0.802,4.068,4.759,6.713,8.827,5.911l254.116-50.336c1.473-0.26,2.691,0.683,2.946,1.974c1.557,10.029,2.737,18.277,0.751,31.13
	c-3.46,22.462-15.54,42.862-33.414,56.638c-13.502-33.68-30.082-30.494-37.412-12.835c-5.04,12.153-11.803,23.505-20.018,33.704
	l-6.082,1.202c-0.741-6.883-2.695-13.576-5.751-19.658c-4.3-8.532-16.656-8.006-20.289,0.751c-1.613,3.897-3.717,7.595-6.232,10.961
	l-19.217-32.282c-4.333-7.265-14.753-7.277-19.147-0.14c-3.236,5.24-7.023,11.492-10.62,18.095
	c-1.994,3.637-0.651,8.206,2.996,10.19c3.637,1.994,8.206,0.651,10.189-2.986c2.284-4.178,4.669-8.246,6.923-11.993l20.86,35.037
	c0.128,0.141,1.564,3.475,5.641,4.078c2.244,0.331,4.509-0.361,6.172-1.884c4.856-4.45,9.003-9.624,12.284-15.229
	c2.546,9.322,1.931,19.725-2.234,28.665c-3.344,7.165,5.258,13.968,11.442,9.097c35.182-27.597,46.027-60.773,48.202-64.323
	c10.406,12.492,22.44,46.763,7.955,78.53c-2.912,6.379,3.771,12.931,10.099,9.889c11.823-5.711,22.513-13.756,31.35-23.535
	c-0.992,13.015-10.059,26.581-22.904,34.145H183.04c-9.146-13.65-12.88-32.859-5.37-56.358c1.252-3.958-0.932-8.176-4.889-9.438
	c-3.958-1.252-8.176,0.932-9.438,4.889c-1.373,4.348-2.455,8.566-3.236,12.744c-37.706,7.049-43.935,9.779-58.081,9.779
	c-42.141,0-78.671-30.048-86.876-71.467l-0.07-0.371c-0.276-1.168,0.479-2.653,1.964-2.946l49.875-9.879
	c4.078-0.802,6.723-4.759,5.911-8.827c-0.802-4.078-4.759-6.713-8.827-5.911l-49.875,9.879
	c-9.248,1.822-15.685,10.836-13.796,20.619l0.08,0.361c9.588,48.423,52.32,83.57,101.614,83.57c16.083,0,24.57-3.284,56.538-9.178
	c0.014,11.511,2.638,22.915,7.393,32.803H88.394c-10.957,0-19.871,8.914-19.871,19.871v42.415c0,10.957,8.914,19.871,19.871,19.871
	h22.829v16.532c0,4.151,3.363,7.514,7.514,7.514h274.525c4.151,0,7.514-3.363,7.514-7.514V477.83h22.829
	c10.957,0,19.871-8.914,19.871-19.871v-42.415c0-10.957-8.914-19.871-19.871-19.871h-75.554c11.431-12.848,17.774-30.51,13.79-46.8
	c-2.226-9.197-14.17-11.69-19.868-4.048c-4.418,5.941-9.598,11.312-15.349,15.93c2.521-13.267,1.972-26.676-1.092-39.776
	c3.17-1.542,18.41-13.103,29.316-30.819l134.948-26.731C502.662,260.874,512,249.523,512,236.418
	C512,218.979,496.17,205.845,479.067,209.226z M88.394,462.801c-2.67,0-4.842-2.172-4.842-4.842v-42.415
	c0-2.67,2.172-4.842,4.842-4.842h160.091v52.1C231.226,462.801,106.749,462.801,88.394,462.801z M385.748,486.847H126.252v-9.017
	h259.497V486.847z M423.606,410.701c2.67,0,4.842,2.172,4.842,4.842v42.415c0,2.67-2.172,4.842-4.842,4.842
	c-17.516,0-143.289,0-160.091,0v-52.1L423.606,410.701L423.606,410.701z"/>
<path d="M210.33,175.318c26.512,31.285,76.976,16.733,83.865-22.642c21.502-8.838,30.366-34.603,19.118-54.785l22.67-19.213
	c3.166-2.683,3.558-7.425,0.875-10.59c-2.683-3.167-7.424-3.559-10.59-0.875l-22.671,19.213
	c-18.037-14.384-44.913-9.919-57.178,9.874C206.504,96.642,183.782,143.994,210.33,175.318z M250.102,111.485
	c3.221,0.305,6.268-1.469,7.583-4.418c5.771-12.943,21.754-18.086,34.074-10.609l-46.391,39.316
	c-5.348,4.532-2.089,13.247,4.862,13.247c4.985,0,2.958-1.03,51.245-41.099c5.35,13.368-2.324,28.299-16.052,31.873
	c-3.126,0.814-5.382,3.533-5.605,6.756c-2.046,29.739-39.135,41.34-58.024,19.051C202.695,143.066,220.816,108.657,250.102,111.485z
	"/>
<path d="M185.138,81.138c17.188,0,31.171-13.983,31.171-31.17s-13.983-31.17-31.171-31.17c-17.187,0-31.17,13.983-31.17,31.17
	S167.951,81.138,185.138,81.138z M185.138,33.827c8.901,0,16.142,7.242,16.142,16.141s-7.242,16.141-16.142,16.141
	c-8.9,0-16.141-7.242-16.141-16.141S176.239,33.827,185.138,33.827z"/>
<path d="M11.897,216.214c0,17.187,13.983,31.17,31.17,31.17s31.17-13.983,31.17-31.17s-13.983-31.17-31.17-31.17
	S11.897,199.027,11.897,216.214z M59.208,216.214c0,8.9-7.242,16.141-16.141,16.141s-16.141-7.242-16.141-16.141
	c0-8.899,7.242-16.141,16.141-16.141S59.208,207.314,59.208,216.214z"/>
<path d="M41.83,88.284l17.714,24.868c-2.344,24.054,7.696,58.181,21.712,77.869c20.382,28.612,56.272,40.75,80.614,23.425
	c21.647-15.416,26.962-51.898,4.228-83.85c-13.576-19.056-43.563-44.776-68.912-49.395L81.907,59.739
	c10.032-9.922,11.578-25.749,3.246-37.452C70.468,1.668,37.98,8.478,33.073,33.569C15.407,31.084,0,44.81,0,62.294
	C0,83.559,22.486,97.858,41.83,88.284z M81.626,97.672c7.779-5.551,22.557,0.605,31.079,5.32
	c15.389,8.496,31.611,22.924,41.149,36.32c7.695,10.811,11.933,23.224,11.933,34.977c0,40.522-46.413,44.34-72.298,8.015
	C76.139,157.92,66.729,108.248,81.626,97.672z M36.59,50.552c5.72,3.68,12.983-1.529,11.372-8.106
	c-2.139-8.882,4.566-17.313,13.546-17.313c14.323,0,19.561,19.28,6.512,26.34c-4.026,2.108-5.255,7.313-2.615,11.001l13.977,19.628
	c-2.324,0.812-4.499,1.924-6.472,3.336c-0.01,0-0.01,0-0.01,0c-3.256,2.324-5.961,5.4-8.085,9.198l-14.999-21.06
	c-1.45-2.025-3.748-3.156-6.122-3.156c-3.529,0-5.017,2.096-6.593,3.236c-9.341,6.633-22.072-0.178-22.072-11.362
	C15.029,51.22,27.285,44.526,36.59,50.552z"/>
<g>
</g>
<g>
</g>
<g>
</g>
<g>
</g>
<g>
</g>
<g>
</g>
<g>
</g>
<g>
</g>
<g>
</g>
<g>
</g>
<g>
</g>
<g>
</g>
<g>
</g>
<g>
</g>
<g>
</g>
</svg>
