<svg clip-rule="evenodd" fill-rule="evenodd" height="512" image-rendering="optimizeQuality" shape-rendering="geometricPrecision" text-rendering="geometricPrecision" viewBox="0 0 71.9666 71.9666" width="512" xmlns="http://www.w3.org/2000/svg" xmlns:xlink="http://www.w3.org/1999/xlink"><linearGradient id="id0" gradientUnits="userSpaceOnUse" x1="35.983" x2="35.983" y1="71.967" y2="0"><stop offset="0" stop-color="#262261"/><stop offset=".0117647" stop-color="#262261"/><stop offset=".0196078" stop-color="#262261"/><stop offset=".0313725" stop-color="#262261"/><stop offset=".0392157" stop-color="#262261"/><stop offset=".0509804" stop-color="#262261"/><stop offset=".0588235" stop-color="#292363"/><stop offset=".0705882" stop-color="#2c2365"/><stop offset=".0784314" stop-color="#2f2468"/><stop offset=".0901961" stop-color="#32246a"/><stop offset=".101961" stop-color="#35256c"/><stop offset=".109804" stop-color="#37256e"/><stop offset=".121569" stop-color="#3a2670"/><stop offset=".129412" stop-color="#3d2672"/><stop offset=".141176" stop-color="#3f2774"/><stop offset=".14902" stop-color="#422776"/><stop offset=".160784" stop-color="#442777"/><stop offset=".168627" stop-color="#462879"/><stop offset=".180392" stop-color="#48287a"/><stop offset=".188235" stop-color="#4a287c"/><stop offset=".2" stop-color="#4c297d"/><stop offset=".211765" stop-color="#4e297f"/><stop offset=".219608" stop-color="#502980"/><stop offset=".231373" stop-color="#512981"/><stop offset=".239216" stop-color="#532a83"/><stop offset=".25098" stop-color="#552a84"/><stop offset=".258824" stop-color="#562a85"/><stop offset=".270588" stop-color="#582a86"/><stop offset=".278431" stop-color="#592b87"/><stop offset=".290196" stop-color="#5a2b88"/><stop offset=".301961" stop-color="#5b2b89"/><stop offset=".309804" stop-color="#5c2b8a"/><stop offset=".321569" stop-color="#5e2b8a"/><stop offset=".329412" stop-color="#5f2c8b"/><stop offset=".341176" stop-color="#602c8c"/><stop offset=".34902" stop-color="#612c8d"/><stop offset=".360784" stop-color="#612c8d"/><stop offset=".368627" stop-color="#622c8e"/><stop offset=".380392" stop-color="#622c8e"/><stop offset=".388235" stop-color="#632c8e"/><stop offset=".4" stop-color="#632d8f"/><stop offset=".411765" stop-color="#632d8f"/><stop offset=".419608" stop-color="#642d8f"/><stop offset=".431373" stop-color="#642d8f"/><stop offset=".439216" stop-color="#652d90"/><stop offset=".45098" stop-color="#652d90"/><stop offset=".458824" stop-color="#672d90"/><stop offset=".470588" stop-color="#682d90"/><stop offset=".478431" stop-color="#6a2c90"/><stop offset=".490196" stop-color="#6b2c90"/><stop offset=".501961" stop-color="#6d2c90"/><stop offset=".509804" stop-color="#6e2c90"/><stop offset=".521569" stop-color="#702c90"/><stop offset=".529412" stop-color="#712b90"/><stop offset=".541176" stop-color="#722b90"/><stop offset=".54902" stop-color="#732b90"/><stop offset=".560784" stop-color="#752b90"/><stop offset=".568627" stop-color="#762b90"/><stop offset=".580392" stop-color="#772a8f"/><stop offset=".588235" stop-color="#782a8f"/><stop offset=".6" stop-color="#792a8f"/><stop offset=".611765" stop-color="#7a2a8f"/><stop offset=".619608" stop-color="#7c2a8f"/><stop offset=".631373" stop-color="#7d2a8f"/><stop offset=".639216" stop-color="#7e298f"/><stop offset=".65098" stop-color="#7f298f"/><stop offset=".658824" stop-color="#80298f"/><stop offset=".670588" stop-color="#81298f"/><stop offset=".678431" stop-color="#82298f"/><stop offset=".690196" stop-color="#82298f"/><stop offset=".701961" stop-color="#83298f"/><stop offset=".709804" stop-color="#84298f"/><stop offset=".721569" stop-color="#85298f"/><stop offset=".729412" stop-color="#85298f"/><stop offset=".741176" stop-color="#86288e"/><stop offset=".74902" stop-color="#87288e"/><stop offset=".760784" stop-color="#87288e"/><stop offset=".768627" stop-color="#88288e"/><stop offset=".780392" stop-color="#89288e"/><stop offset=".788235" stop-color="#89288e"/><stop offset=".8" stop-color="#8a288e"/><stop offset=".811765" stop-color="#8b288e"/><stop offset=".819608" stop-color="#8b288e"/><stop offset=".831373" stop-color="#8c288e"/><stop offset=".839216" stop-color="#8c288e"/><stop offset=".85098" stop-color="#8d288e"/><stop offset=".858824" stop-color="#8d288e"/><stop offset=".870588" stop-color="#8d288e"/><stop offset=".878431" stop-color="#8d288e"/><stop offset=".890196" stop-color="#8e288e"/><stop offset=".901961" stop-color="#8e288e"/><stop offset=".909804" stop-color="#8e278e"/><stop offset=".921569" stop-color="#8e278e"/><stop offset=".929412" stop-color="#8e278e"/><stop offset=".941176" stop-color="#8f278e"/><stop offset=".94902" stop-color="#8f278e"/><stop offset=".960784" stop-color="#8f278e"/><stop offset=".968627" stop-color="#8f278e"/><stop offset=".980392" stop-color="#90278e"/><stop offset=".988235" stop-color="#90278e"/><stop offset="1" stop-color="#90278e"/></linearGradient><g id="Layer_x0020_1"><path d="m71.9665 35.9833c0-19.8731-16.1102-35.9833-35.9833-35.9833s-35.9833 16.1102-35.9833 35.9833 16.1102 35.9833 35.9833 35.9833 35.9833-16.1102 35.9833-35.9833z" fill="url(#id0)"/><g id="_714793064"><g><path id="_255420480" d="m35.9833 57.6474c-11.9417 0-21.6641-9.7224-21.6641-21.6641 0-11.9416 9.7224-21.6641 21.6641-21.6641s21.6641 9.7224 21.6641 21.664c0 11.9417-9.7225 21.6642-21.6641 21.6642zm0-42.0953c-11.2724 0-20.4312 9.1588-20.4312 20.4311 0 11.2724 9.1588 20.4312 20.4312 20.4312s20.4312-9.1588 20.4312-20.4312c0-11.2723-9.1588-20.4311-20.4312-20.4311z" fill="#fff" fill-rule="nonzero"/></g><g><path id="_255420032" d="m35.9833 48.383c-6.7987 0-12.3644-5.5658-12.3644-12.3997 0-6.7986 5.5305-12.3643 12.3644-12.3643s12.3996 5.5305 12.3996 12.3643c0 6.8339-5.5658 12.3997-12.3996 12.3997zm0-23.5312c-6.1295 0-11.1316 5.0021-11.1316 11.1315 0 6.1647 5.0021 11.1668 11.1315 11.1668 6.1646 0 11.1667-5.0021 11.1667-11.1668.0001-6.1294-5.002-11.1315-11.1666-11.1315z" fill="#fff" fill-rule="nonzero"/></g><g><path id="_255418968" d="m32.8129 25.2745c-.317 0-.5637-.2113-.5988-.5284l-1.1978-9.2645c-.0352-.3522.2113-.634.5284-.7044.3523-.0353.6341.2113.7045.5284l1.1977 9.2645c.0352.3522-.2114.634-.5285.7044-.0351 0-.0703 0-.1055 0zm6.3407 0c-.0353 0-.0704 0-.0704 0-.3523-.0352-.5637-.3522-.5285-.7044l1.2329-9.2645c.0353-.3523.3523-.5637.7045-.5284.3523.0352.5637.3522.5284.7044l-1.2329 9.2645c-.0704.3171-.3169.5284-.634.5284z" fill="#fff" fill-rule="nonzero"/></g><g><path id="_255418352" d="m56.5906 40.9855c-.0353 0-.0704 0-.0704 0l-9.2645-1.2329c-.3523-.0353-.5637-.3523-.5285-.7045.0353-.3523.3523-.5637.7045-.5284l9.2645 1.2329c.3523.0352.5637.3522.5284.7044-.0704.317-.3522.5285-.634.5285zm-9.2645-7.5385c-.317 0-.5637-.2113-.5989-.5284-.0352-.3522.2114-.6341.5285-.7045l9.2645-1.1976c.3522-.0353.634.2113.7044.5284.0353.3523-.2113.6341-.5284.7045l-9.2645 1.1976c-.0704 0-.0704 0-.1056 0z" fill="#fff" fill-rule="nonzero"/></g><g><path id="_255419584" d="m40.3866 57.1895c-.317 0-.5637-.2113-.5989-.5284l-1.2329-9.2645c-.0352-.3522.1762-.634.5285-.7044.3522-.0353.634.1761.7044.5284l1.2329 9.2645c.0353.3522-.1761.634-.5284.7044-.0705 0-.1056 0-.1056 0zm-8.7715 0c-.0352 0-.0352 0-.0704 0-.3522-.0352-.5636-.3522-.5284-.7044l1.1977-9.2645c.0352-.3523.3522-.5637.7044-.5284.3523.0352.5637.3522.5285.7044l-1.1977 9.2645c-.0704.317-.317.5284-.6341.5284z" fill="#fff" fill-rule="nonzero"/></g><g><path id="_255418912" d="m15.3759 40.9855c-.317 0-.5637-.2114-.5988-.5285-.0353-.3522.1761-.634.5284-.7044l9.2645-1.2329c.3522-.0353.634.1761.7045.5284.0704.3522-.1762.6341-.5285.7045l-9.2645 1.2329c-.0352 0-.0704 0-.1056 0zm9.2997-7.5385c-.0352 0-.0352 0-.0704 0l-9.2998-1.1977c-.3523-.0353-.5637-.3522-.5284-.7045.0352-.3522.3522-.5637.7044-.5284l9.2645 1.1976c.3523.0353.5637.3523.5285.7045-.0352.282-.2818.5285-.5988.5285z" fill="#fff" fill-rule="nonzero"/></g><g><path id="_255416840" d="m35.9833 44.4024c-4.6499 0-8.3839-3.7692-8.3839-8.4191 0-4.6498 3.7693-8.3838 8.3839-8.3838 4.6498 0 8.4191 3.7692 8.4191 8.3838 0 4.6499-3.7693 8.4191-8.4191 8.4191zm0-15.57c-3.9454 0-7.151 3.2056-7.151 7.1509 0 3.9806 3.2056 7.1862 7.151 7.1862 3.9805 0 7.1862-3.2408 7.1862-7.1862-.0001-3.9453-3.2057-7.1509-7.1862-7.1509z" fill="#fff" fill-rule="nonzero"/></g></g></g></svg>