<svg id="Layer_1" enable-background="new 0 0 64 64" height="512" viewBox="0 0 64 64" width="512" xmlns="http://www.w3.org/2000/svg"><path d="m42 9c-2.2 0-4.767 1.629-5.703 3.619l-.217.381h22.92v11h-29.167-1.833c0 1.104-.896 2-2 2h-17l-3 3v3h8l-2 4h-6l-2 3v4h11c1.1 0 2 .9 2 2v2c0 1.1-.9 2-2 2h7.201c-.131-.646-.201-1.315-.201-2 0-5.522 4.477-10 10-10s10 4.478 10 10c0 .685-.07 1.354-.201 2h21.201v-40z" fill="#2488ff"/><path d="m14 32h-8v4h6z" fill="#ffcd00"/><path d="m17 47c0 1.1-.9 2-2 2h-12c-1.1 0-2-.9-2-2v-2c0-1.1.9-2 2-2h12c1.1 0 2 .9 2 2z" fill="#fff"/><path d="m59 24v-11h-22.92l-6.247 11z" fill="#fff"/><path d="m32 37c-5.523 0-10 4.478-10 10s4.477 10 10 10 10-4.478 10-10-4.477-10-10-10zm0 16c-3.309 0-6-2.691-6-6s2.691-6 6-6 6 2.691 6 6-2.691 6-6 6z" fill="#ffcd00"/><circle cx="32" cy="47" fill="#fff" r="6"/><path d="m26.002 26c-.715 0-1.406-.384-1.767-1.059l-7.435-13.941h-2.8c-1.105 0-2-.896-2-2s.895-2 2-2h4c.738 0 1.417.407 1.765 1.059l8 15c.52.975.151 2.187-.823 2.706-.3.16-.623.235-.94.235z" fill="#ffcd00"/><g fill="#004fac"><path d="m32 40c-3.859 0-7 3.141-7 7s3.141 7 7 7 7-3.141 7-7-3.141-7-7-7zm0 12c-2.757 0-5-2.243-5-5s2.243-5 5-5 5 2.243 5 5-2.243 5-5 5z"/><path d="m32 44c-.553 0-1 .447-1 1s.447 1 1 1c.552 0 1 .448 1 1 0 .553.447 1 1 1s1-.447 1-1c0-1.654-1.346-3-3-3z"/><path d="m47.29 44.29c-.181.189-.29.439-.29.71 0 .27.109.52.29.71.189.18.45.29.71.29s.519-.11.71-.29c.18-.19.29-.45.29-.71s-.11-.521-.29-.71c-.38-.37-1.061-.37-1.42 0z"/><path d="m50.29 21.71c.189.18.45.29.71.29s.519-.11.71-.29c.18-.19.29-.45.29-.71s-.11-.521-.29-.71c-.38-.37-1.05-.37-1.42 0-.181.189-.29.45-.29.71s.109.52.29.71z"/><path d="m46 29c-.553 0-1 .447-1 1 0 .552-.448 1-1 1h-4c-.552 0-1-.448-1-1 0-.553-.447-1-1-1s-1 .447-1 1c0 1.654 1.346 3 3 3h4c1.654 0 3-1.346 3-3 0-.553-.447-1-1-1z"/><path d="m63 8h-21c-2.599 0-5.502 1.842-6.572 4.124l-.217.381c0 .001 0 .002-.001.002l-5.959 10.493h-.435c-.05-.139-.098-.278-.169-.412l-8.001-15c-.522-.98-1.536-1.588-2.646-1.588h-4c-1.654 0-3 1.346-3 3s1.346 3 3 3h2.2l6.934 13h-14.134c-.266 0-.52.105-.707.293l-3 3c-.188.187-.293.441-.293.707v3 3.697l-1.832 2.748c-.109.164-.168.358-.168.555v3c-1.654 0-3 1.346-3 3v2c0 1.654 1.346 3 3 3h12 6.427c1.309 4.61 5.549 8 10.573 8s9.264-3.39 10.573-8h20.427c.553 0 1-.447 1-1v-40c0-.553-.447-1-1-1zm-26.338 6h13.924l-9 9h-3.172l5.293-5.293c.391-.391.391-1.023 0-1.414s-1.023-.391-1.414 0l-6.707 6.707h-4.035zm19.924 0-4.293 4.293c-.391.391-.391 1.023 0 1.414.195.195.451.293.707.293s.512-.098.707-.293l4.293-4.293v7.586h-13.586l9-9zm-39.786-4h-2.8c-.552 0-1-.448-1-1s.448-1 1-1h4c.37 0 .708.203.882.529l8 15c.104.195.119.407.09.61-.01.067-.018.135-.04.197-.021.061-.057.114-.09.17-.033.054-.064.109-.106.157-.045.049-.101.088-.156.128-.05.037-.097.076-.152.104-.068.031-.14.046-.211.061-.053.012-.103.028-.157.032-.377.016-.759-.175-.941-.518l-7.436-13.941c-.174-.326-.514-.529-.883-.529zm-9.8 23h5.382l-1 2h-4.382zm-5 14v-2c0-.552.448-1 1-1h12c.552 0 1 .448 1 1v2c0 .552-.448 1-1 1h-12c-.552 0-1-.448-1-1zm30 9c-4.963 0-9-4.037-9-9s4.037-9 9-9 9 4.037 9 9-4.037 9-9 9zm10.949-8c.03-.33.051-.662.051-1 0-6.065-4.935-11-11-11s-11 4.935-11 11c0 .338.02.67.051 1h-3.235c.112-.314.184-.647.184-1v-2c0-1.654-1.346-3-3-3h-10v-2.697l1.535-2.303h5.465c.379 0 .725-.214.894-.553l2-4c.155-.31.139-.678-.044-.973-.182-.294-.503-.474-.85-.474h-7v-1.586l2.414-2.414h16.586.001.001.004c.223-.001.438-.033.646-.08.048-.011.094-.022.141-.034.207-.058.407-.131.594-.229.008-.004.018-.006.025-.01.034-.018.061-.044.094-.062.114-.067.225-.14.329-.222.056-.043.108-.088.16-.134.086-.077.166-.159.242-.245.041-.047.085-.091.123-.14.107-.137.204-.281.287-.435.004-.008.006-.015.01-.023.066-.124.124-.253.172-.387h1.004 29.167c.553 0 1-.447 1-1v-10.999c0-.13-.026-.26-.077-.382-.102-.245-.296-.439-.541-.541-.122-.051-.252-.077-.382-.077h-21.082c1.026-1.152 2.663-2 4.082-2h20v34h-10c-.553 0-1 .447-1 1s.447 1 1 1h10v2z"/></g></svg>