<svg height="512" viewBox="0 0 60 60" width="512" xmlns="http://www.w3.org/2000/svg"><g id="Page-1" fill="none" fill-rule="evenodd"><g id="025---Swords" fill-rule="nonzero" transform="translate(-1)"><path id="Shape" d="m24.439 45.047-8.486-8.486 28.276-33.88c.1697479-.20332065.4132249-.33099319.677-.355l13.949-1.268c.2957639-.0270758.5882598.07871796.7982709.2887291s.3158049.50250705.2887291.7982709l-1.268 13.949c-.0240068.2637751-.1516794.5072521-.355.677z" fill="#9e9e9e"/><path id="Shape" d="m58.855 1.058-2.322.211c.2810575.19962302.4364087.53235565.409.876l-1.268 13.949c-.0240068.2637751-.1516794.5072521-.355.677l-32.245 26.911 1.365 1.365 33.88-28.276c.2033206-.1697479.3309932-.4132249.355-.677l1.268-13.949c.0270758-.29576385-.078718-.58825976-.2887291-.7982709s-.502507-.3158049-.7982709-.2887291z" fill="#707070"/><path id="Shape" d="m23.025 53.532-15.557-15.557c-.39038194-.3904999-.39038194-1.0235001 0-1.414l2.319-2.319c.3043802-.3041045.7691605-.3794198 1.154-.187l5.012 2.506 8.486 8.486 2.506 5.012c.1924198.3848395.1171045.8496198-.187 1.154l-2.319 2.319c-.3904999.3903819-1.0235001.3903819-1.414 0z" fill="#ffdc00"/><path id="Shape" d="m5.23605603 43.2644069h7.99999997v13c0 2.209139-1.790861 4-3.99999997 4-2.209139 0-4-1.790861-4-4z" fill="#ff9801" transform="matrix(.707 .707 -.707 .707 39.308 8.631)"/><path id="Shape" d="m41.35 30.93 4.7 5.63-4.24 4.25-4.25 4.24-6.56-5.48z" fill="#7f8e94"/><path id="Shape" d="m31 18.53-13.23-15.85c-.1703465-.20340197-.415476-.32957158-.68-.35l-13.95-1.27c-.29441197-.03400036-.58750989.07359255-.79.29-.21640745.20249011-.32400036.49558803-.29.79l1.27 13.95c.02042842.264524.14659803.5096535.35.68l16.97 14.16z" fill="#7f8e94"/><path id="Shape" d="m38.975 53.532 15.557-15.557c.3903819-.3904999.3903819-1.0235001 0-1.414l-2.319-2.319c-.3043802-.3041045-.7691605-.3794198-1.154-.187l-5.012 2.506-8.486 8.486-2.506 5.012c-.1924198.3848395-.1171045.8496198.187 1.154l2.319 2.319c.3904999.3903819 1.0235001.3903819 1.414 0z" fill="#ffdc00"/><path id="Shape" d="m54.532 36.561-2.319-2.319c-.3043802-.3041045-.7691605-.3794198-1.154-.187l-1.356.678 1.829 1.828c.3903819.3904999.3903819 1.0235001 0 1.414l-14.764 14.764.793.793c.3904999.3903819 1.0235001.3903819 1.414 0l15.557-15.557c.3903819-.3904999.3903819-1.0235001 0-1.414z" fill="#fec108"/><path id="Shape" d="m52.7636492 43.264c2.209139 0 4 1.790861 4 4v13h-8v-13c0-2.209139 1.790861-4 4-4z" fill="#ff9801" transform="matrix(-.707 .707 -.707 -.707 126.676 51.057)"/><path id="Shape" d="m58.774 52.118-9.192-9.193-1.5 1.5 7.692 7.693c1.5615278 1.5619994 1.5615278 4.0940006 0 5.656-.3789538.379939-.8306191.6795754-1.328.881 1.4887276.6016363 3.1929281.2547323 4.328-.881 1.5615278-1.5619994 1.5615278-4.0940006 0-5.656z" fill="#f57c00"/><path id="Shape" d="m53.406 45.335-2.406-2.41 4.244-4.243c.7807639-.7809997.7807639-2.0470003 0-2.828l-2.324-2.318c-.6086981-.6090074-1.5388554-.7600723-2.309-.375l-4.3 2.15-3.55-4.252 16.2-13.519c.4086426-.3389845.6649632-.8271457.712-1.356l1.265-13.949c.0537897-.59117252-.1578097-1.17569246-.5775586-1.59544137-.4197489-.4197489-1.0042689-.63134836-1.5954414-.57755863l-13.949 1.268c-.5283768.04693218-1.0161483.30287721-1.355.711l-12.461 14.93-12.468-14.938c-.338198-.40511654-.8249983-.65734464-1.351-.7l-13.944-1.268c-.57492491-.06569709-1.14845184.13419067-1.558.543-.4487971.41420112-.67660551 1.01539309-.615 1.623l1.269 13.933c.0398484.5348517.29496827 1.0306575.707 1.374l16.2 13.521-3.551 4.254-4.3-2.152c-.7694408-.3875021-1.70082222-.2361728-2.308.375l-2.32 2.318c-.37524801.375096-.58607293.8839266-.58607293 1.4145s.21082492 1.039404.58607293 1.4145l4.239 4.242-8.481 8.486c-1.89486105 1.9618944-1.86776187 5.0804239.06090712 7.0090929s5.04719845 1.9557681 7.00909288.0609071l8.486-8.481 4.242 4.243c.375096.375248.8839266.5860729 1.4145.5860729s1.039404-.2108249 1.4145-.5860729l2.318-2.319c.6090074-.6086981.7600723-1.5388554.375-2.309l-2.152-4.3 5.313-4.442 5.311 4.437-2.15 4.3c-.3845851.7698874-.2335473 1.6994751.375 2.308l2.318 2.319c.375096.375248.8839266.5860729 1.4145.5860729s1.039404-.2108249 1.4145-.5860729l4.242-4.237 8.485 8.485c1.2574665 1.289931 3.1116083 1.8037158 4.8536408 1.3449496 1.7420326-.4587663 3.1026097-1.8191509 3.5616223-3.5611186s-.05451-3.596182-1.3442631-4.853831zm-8.706-8.835-2.9 2.89-4.1-4.107 3.527-2.943zm-40.374-20.5-1.135-12.395 10.616 10.616c.3923789.3789722 1.0160848.3735524 1.4018186-.0121814s.3911536-1.0094397.0121814-1.4018186l-10.609-10.607 12.388 1.121 12.7 15.21-3.983 4.769-4.84-4.84c-.3923789-.3789722-1.0160848-.3735524-1.4018186.0121814s-.3911536 1.0094397-.0121814 1.4018186l4.967 4.967-3.905 4.679zm4.974 39.94-1.412-1.414c-.39237889-.3789722-1.01608478-.3735524-1.40181858.0121814-.38573379.3857338-.39115363 1.0094397-.01218142 1.4018186l1.385 1.385c-1.25308038.9600365-3.03643117.7814073-4.07420344-.4080923-1.03777227-1.1894995-.972901-2.9805998.14820344-4.0919077l5.367-5.37 1.414 1.414c.3923789.3789722 1.0160848.3735524 1.4018186-.0121814s.3911536-1.0094397.0121814-1.4018186l-1.412-1.414 1.7-1.7 4.243 4.243zm16.75-5.434-2.318 2.32-15.557-15.558 2.319-2.318 4.867 2.433 8.256 8.256zm-1.55-6.813-2.889-2.893 20.925-20.922c.3789722-.3923789.3735524-1.0160848-.0121814-1.4018186s-1.0094397-.3911536-1.4018186-.0121814l-20.922 20.925-2.893-2.889 27.693-33.178 12.39-1.122-10.611 10.607c-.2599566.2510745-.3642126.6228779-.2726972.9725073.0915155.3496295.3645604.6226744.7141899.7141899.3496294.0915154.7214328-.0127406.9725073-.2726972l10.607-10.611-1.122 12.39-16.961 14.159h-.008l-.005.006zm8.061-4.123 3.595-3 4.234 4.23-2.89 2.9zm10.657 8.305-4.949 4.95-2.319-2.319 2.43-4.862 8.264-8.264 4.862-2.43 2.319 2.319-4.949 4.949zm14.849 9.192c-1.0614347 1.052261-2.7355296 1.1627018-3.926.259l1.385-1.386c.3789722-.3923789.3735524-1.0160848-.0121814-1.4018186s-1.0094397-.3911536-1.4018186-.0121814l-1.412 1.415-7.359-7.359 4.243-4.242 1.7 1.7-1.415 1.414c-.2599566.2510745-.3642126.6228779-.2726972.9725073.0915155.3496295.3645604.6226744.7141899.7141899.3496294.0915154.7214328-.0127406.9725073-.2726972l1.417-1.413 5.369 5.37c1.1711458 1.1714996 1.1711458 3.0705004 0 4.242z" fill="#000"/></g></g></svg>