<?xml version="1.0"?>
<svg xmlns="http://www.w3.org/2000/svg" xmlns:svg="http://www.w3.org/2000/svg" width="23.999966" height="24.000023" viewBox="0 0 6.3499908 6.3500061" version="1.1" id="svg5" xml:space="preserve"><defs id="defs2"/><g id="layer1" transform="translate(-21.431256,-88.106246)"><path id="path24723" style="font-variation-settings:'wght' 800;fill:rgb(0,0,0);fill-opacity:1;stroke-width:0.264583;stroke-linecap:round;stroke-linejoin:round;paint-order:stroke fill markers" d="m 22.754167,88.635416 c -0.439737,0 -0.79375,0.354013 -0.79375,0.79375 v 3.704167 c 0,0.439736 0.354013,0.79375 0.79375,0.79375 h 3.704167 c 0.439738,0 0.79375,-0.354014 0.79375,-0.79375 v -3.704167 c 0,-0.439737 -0.354012,-0.79375 -0.79375,-0.79375 z m 1.609205,0.529167 h 5.16e-4 a 0.10600332,0.10602831 0 0 1 0.0098,0.0016 0.1058661,0.10582763 0 0 1 0.01705,0.0031 0.1058661,0.10582763 0 0 0 5.17e-4,0 0.1058661,0.10582763 0 0 1 0.077,0.08837 0.1058661,0.10582763 0 0 1 -0.03411,0.08992 0.1058661,0.10582763 0 0 1 -0.0036,0.0041 h -5.17e-4 c -0.292541,0.281011 -0.457337,0.669147 -0.457336,1.07487 0,0.82445 0.665578,1.490348 1.489831,1.490348 0.403069,0 0.788677,-0.163526 1.069186,-0.452685 a 0.1058661,0.10582763 0 0 1 0.09974,-0.04547 0.1058661,0.10582763 0 0 1 0.09147,0.107487 0.10600332,0.10602831 0 0 1 -0.0026,0.02325 c -1.1e-4,8e-4 -4.06e-4,0.0018 -5.17e-4,0.0026 -0.139748,1.054142 -1.040712,1.845882 -2.106331,1.845882 -1.172389,0 -2.123902,-0.952971 -2.123902,-2.124935 0,-1.065645 0.791281,-1.966133 1.846399,-2.105298 0.0051,-7e-4 0.0099,-0.0014 0.01499,-0.0021 a 0.1058661,0.10582763 0 0 1 0.0036,0 0.10600332,0.10602831 0 0 1 0.0088,-0.001 z"/></g></svg>
