<svg id="Layer_3" enable-background="new 0 0 32 32" height="512" viewBox="0 0 32 32" width="512" xmlns="http://www.w3.org/2000/svg"><path d="m25.88 1h-19.76c-2.82001 0-5.12 2.29999-5.12 5.12v19.76c0 2.82001 2.29999 5.12 5.12 5.12h19.76c2.82001 0 5.12-2.29999 5.12-5.12v-19.76c0-2.82001-2.29999-5.12-5.12-5.12zm-.09002 16h-2.28998c-.54999 0-1-.45001-1-1s.45001-1 1-1h2.28998c1.30884.00427 1.30993 1.99567 0 2zm-20.57996-1c0-.54999.44-1 1-1h2.28998c.54999 0 1 .45001 1 1s-.45001 1-1 1h-2.28998c-.56 0-1-.45001-1-1zm10.78998 5.60999c-7.40051-.23639-7.39874-10.98474.00012-11.21997 7.41284.24023 7.41107 10.98077-.00012 11.21997zm1 1.89001v2.28998c-.00433 1.30884-1.99573 1.30988-2-.00006v-2.28992c0-.54999.45001-1 1-1s1 .45001 1 1zm-5.59998-1.48999-1.62 1.62c-.91455.93744-2.33167-.4873-1.40997-1.4101-.00005.00006 1.61994-1.61993 1.61994-1.61993.9248-.9184 2.32935.48419 1.41003 1.41003zm-3.03002-12.23004c-.39002-.38996-.39002-1.01996 0-1.40997s1.02002-.39001 1.41003 0l1.62 1.62c.38995.39001.38995 1.02002 0 1.40997-.3844.40265-1.02972.39734-1.41003 0zm6.63-1.27997v-2.29004c.00433-1.3089 1.99573-1.30994 2 .00006 0-.00006 0 2.28998 0 2.28998 0 .54999-.45001 1-1 1s-1-.45001-1-1zm5.59998 12.09998c.39001-.39001 1.02002-.39001 1.41003 0l1.62 1.62c.39001.39001.39001 1.02002 0 1.41003-.3844.40259-1.02972.39728-1.41003 0l-1.62-1.62c-.38996-.39001-.38996-1.02002 0-1.41003zm0-10.60999 1.62-1.62c.39001-.39001 1.02002-.39001 1.41003 0s.39001 1.02002 0 1.40997l-1.62 1.62c-.92188.93579-2.32855-.48779-1.41003-1.40997z"/><path d="m12.40002 15.99988c.12079 4.76404 7.08423 4.75604 7.20996.00012-.12499-4.755-7.08843-4.76489-7.20996-.00012z"/></svg>