<svg id="Layer_1" height="512" viewBox="0 0 512 512" width="512" xmlns="http://www.w3.org/2000/svg"><g clip-rule="evenodd" fill-rule="evenodd"><path d="m506.07 44.573-165.328-44.3c-1.363-.364-2.793-.363-4.143 0l-163.271 43.747-163.258-43.748c-2.398-.643-4.97-.132-6.941 1.382-1.969 1.512-3.129 3.859-3.129 6.346v451.701c0 3.619 2.43 6.789 5.93 7.73l165.33 44.299c1.361.359 2.791.361 4.139 0l163.273-43.75 163.258 43.75c.68.18 1.379.27 2.07.27 1.74 0 3.459-.568 4.869-1.648 1.971-1.521 3.131-3.861 3.131-6.351v-451.699c0-3.623-2.43-6.791-5.93-7.729z" fill="#004fac"/><path d="m330.67 453.561-149.338 40.01v-235.838c16.6 27.385 39.648 56.367 68.918 86.598 1.512 1.56 3.578 2.439 5.75 2.439s4.238-.88 5.75-2.439c29.27-30.23 52.32-59.213 68.918-86.6z" fill="#57a4ff"/><path d="m256 327.2c-100.109-105.84-95.832-167.718-84.09-195.417 12.451-29.376 45.449-48.355 84.09-48.355s71.641 18.98 84.09 48.355c11.742 27.697 16.019 89.577-84.09 195.417z" fill="#fff"/><g fill="#57a4ff"><path d="m314.262 81.718c-17.082-9.349-37.233-14.289-58.262-14.289s-41.18 4.941-58.262 14.291c-5.959 3.263-11.449 7.031-16.41 11.236l.004-34.516 149.338-40.014v74.529c-4.959-4.205-10.451-7.971-16.408-11.237z"/><path d="m16 18.426 149.332 40.014v52.221c-3.191 4.675-5.934 9.641-8.152 14.882-10.92 25.775-9.699 56.427 3.641 91.103 1.381 3.574 2.879 7.187 4.508 10.831l.004 266.095-149.333-40.011z"/><path d="m496 493.57-149.33-40.01v-226.089c1.631-3.643 3.131-7.252 4.51-10.827 13.342-34.678 14.57-65.329 3.641-91.104-2.219-5.241-4.961-10.204-8.152-14.877l.002-92.237 149.329 40.013z"/></g><path d="m256 115.482c-31.33 0-56.811 25.489-56.811 56.816.002 31.327 25.479 56.815 56.811 56.815s56.82-25.487 56.82-56.815-25.492-56.814-56.82-56.816z" fill="#004fac"/><path d="m256 213.114c-22.5 0-40.811-18.31-40.811-40.815.002-22.506 18.311-40.815 40.811-40.815 22.512 0 40.82 18.309 40.82 40.815 0 22.504-18.31 40.815-40.82 40.815z" fill="#57a4ff"/><path d="m256 360.229 13.02-13.02c3.129-3.129 8.189-3.129 11.309.001 3.133 3.119 3.131 8.189 0 11.31l-13.02 13.021 13.023 13.02c3.129 3.129 3.127 8.19-.004 11.311-1.559 1.569-3.598 2.35-5.648 2.35-2.049 0-4.102-.78-5.66-2.35l-13.02-13.021-13.02 13.02c-1.563 1.57-3.611 2.351-5.66 2.351-2.039 0-4.09-.78-5.652-2.35-3.129-3.121-3.129-8.181 0-11.311l13.023-13.02-13.021-13.021c-3.131-3.12-3.131-8.189-.002-11.31 3.123-3.13 8.191-3.13 11.313 0z" fill="#004fac"/></g></svg>