<svg id="Layer_1" enable-background="new 0 0 68 68" viewBox="0 0 68 68" xmlns="http://www.w3.org/2000/svg"><g><g><g><path d="m59.3 18.5v43.5c0 1.8-1.5 3.3-3.3 3.3h-40.3c-1.8 0-3.3-1.5-3.3-3.3v-56c0-1.8 1.5-3.3 3.3-3.3h27.9z" fill="#fff"/></g><g opacity=".5"><path d="m54.3 13.5v51.8h1.8c1.8 0 3.3-1.5 3.3-3.3v-43.5z" fill="#eaeaea"/></g><g opacity=".5"><path d="m18.2 2.8h-2.5c-1.8 0-3.3 1.5-3.3 3.3v56c0 1.8 1.5 3.3 3.3 3.3h2.5c0-.1 0-62.6 0-62.6z" fill="#eaeaea"/></g><g opacity=".5"><path d="m22.3 2.8h3.1v62.5h-3.1z" fill="#eaeaea"/></g><g><path d="m59.3 18.5h-12.5c-1.8 0-3.3-1.5-3.3-3.3v-12.4z" fill="#f33"/></g></g><g><path d="m37.1 44.3v10c0 1.3-1 2.3-2.3 2.3h-24.1c-1.1 0-2-.9-2-2v-10.6c0-1.1.9-2 2-2h24.2c1.2 0 2.2 1.1 2.2 2.3z" fill="#f33"/></g><g><path d="m15.3 42v14.6h-4.7c-1.1 0-2-.9-2-2v-10.6c0-1.1.9-2 2-2z" fill="#ef0a0a"/></g><g><path d="m20 42h3.6v14.6h-3.6z" fill="#ef0a0a"/></g><g fill="#f33"><path d="m27.1 26.2c1.1 0 2 .3 2.7.8.6.5.9 1.3.9 2.4 0 1-.3 1.8-.9 2.4-.6.5-1.5.8-2.7.8h-2.3v3.1c0 .1 0 .2-.1.3s-.2.1-.3.1h-1.1c-.1 0-.2 0-.3-.1s-.1-.2-.1-.3v-9.1c0-.1 0-.2.1-.3s.2-.1.3-.1zm-2.3 4.6h2.2c.5 0 1-.1 1.3-.3s.5-.6.5-1.1-.2-.9-.5-1.1c-.4-.2-.8-.3-1.3-.3h-2.2z"/><path d="m36.1 26.2c.7 0 1.3.1 1.8.3s.9.4 1.3.8c.3.3.6.7.8 1.2s.3 1 .3 1.6v2.1c0 .6-.1 1.1-.3 1.6s-.4.9-.8 1.2c-.3.3-.8.6-1.3.8s-1.1.3-1.8.3h-3.6c-.1 0-.2 0-.3-.1s-.1-.2-.1-.3v-9.1c0-.1 0-.2.1-.3s.2-.1.3-.1zm2.3 3.9c0-.3-.1-.6-.2-.8-.1-.3-.2-.5-.4-.7s-.4-.3-.7-.5c-.4-.1-.7-.1-1.1-.1h-1.9v6.3h2c.4 0 .7-.1 1-.2s.5-.3.7-.4c.2-.2.3-.4.4-.7s.2-.5.2-.8c0-.7 0-1.4 0-2.1z"/><path d="m48.5 26.2c.1 0 .2 0 .3.1s.1.2.1.3v1c0 .1 0 .2-.1.3s-.2.1-.3.1h-4.5v2.7h4.2c.1 0 .2 0 .3.1s.1.2.1.3v1c0 .1 0 .2-.1.3s-.2.1-.3.1h-4.2v3.2c0 .1 0 .2-.1.3s-.2.1-.3.1h-1.1c-.1 0-.2 0-.3-.1s-.1-.2-.1-.3v-9.1c0-.1 0-.2.1-.3s.2-.1.3-.1z"/></g><g fill="#f33"><path d="m27.06026 26.21504c1.13746 0 2.0207.26827 2.65134.80399.62899.53571.94431 1.32072.94431 2.35419 0 1.03429-.31532 1.82424-.94431 2.36905-.63065.54562-1.51388.81803-2.65134.81803h-2.25678v3.14413c0 .10319-.03631.19233-.11227.26744-.07594.07594-.1651.11308-.26744.11308h-1.14242c-.104 0-.19316-.03714-.26744-.11308-.07594-.07512-.11391-.16428-.11391-.26745v-9.10883c0-.10319.03797-.19233.11391-.26744.0743-.07511.16344-.11308.26744-.11308h3.77891zm-2.25678 4.5829h2.18579c.53654 0 .96412-.10648 1.28275-.3178.32027-.21132.48041-.58029.48041-1.10693 0-.52582-.16014-.88984-.48041-1.09289-.31863-.20141-.74621-.30294-1.28275-.30294h-2.18579z"/><path d="m36.056 26.21504c.69503 0 1.29925.09163 1.81104.27488.51179.18326.93936.4441 1.28275.78253.3434.33843.60588.74702.79078 1.22662.18325.47959.29221 1.01531.33018 1.60798.03797.69502.03797 1.39087 0 2.08674-.03797.59185-.14693 1.12756-.33018 1.60714-.18491.47959-.44574.88818-.78253 1.22663-.33844.33844-.75941.59927-1.26294.78252-.50352.18326-1.09289.27488-1.76978.27488h-3.55273c-.104 0-.19316-.03714-.26744-.11308-.07594-.07511-.11391-.16427-.11391-.26744v-9.10883c0-.10319.03797-.19233.11391-.26744.0743-.07511.16344-.11308.26744-.11308h3.48341zm2.31126 3.89198c-.01815-.30128-.07759-.58029-.17664-.83948-.0974-.25836-.24433-.48371-.43583-.67687-.19316-.19233-.43583-.34257-.7264-.4507-.29221-.10813-.6389-.16261-1.04337-.16261h-1.89027v6.34523h1.96127c.38466 0 .71814-.05449 1.00045-.16261.2823-.10732.51672-.2559.70493-.4441.18821-.18737.33183-.41355.42924-.67687.09904-.26249.15849-.5448.17664-.84526.03795-.69584.03795-1.39169-.00002-2.08673z"/><path d="m48.51863 26.21504c.104 0 .19316.03797.2691.11308.0743.07511.11227.16427.11227.26744v1.00128c0 .10319-.03797.19316-.11227.26827-.07594.07511-.1651.11227-.2691.11227h-4.49706v2.73553h4.2164c.10236 0 .1915.03797.26744.11308.0743.07511.11227.16427.11227.26744v1.00128c0 .10319-.03797.19316-.11227.26827-.07594.07511-.1651.11227-.26744.11227h-4.2164v3.22916c0 .10319-.03797.19233-.11227.26744-.07594.07594-.1651.11308-.2691.11308h-1.14075c-.104 0-.19316-.03714-.2691-.11308-.0743-.07511-.11227-.16427-.11227-.26744v-9.10883c0-.10319.03797-.19233.11227-.26744.07594-.07511.1651-.11308.2691-.11308h6.01917v-.00002z"/></g><g><g><path d="m59.9 18c-.1-.1-15.6-15.6-15.8-15.8-.2-.1-.4-.2-.5-.2h-27.9c-2.2 0-4 1.8-4 4v35.3h-1c-1.5 0-2.8 1.2-2.8 2.8v10.6c0 1.5 1.2 2.8 2.8 2.8h1v4.5c0 2.2 1.8 4 4 4h40.4c2.2 0 4-1.8 4-4v-43.5c0-.1-.1-.3-.2-.5zm-15.6-13.4 13.2 13.2h-10.7c-1.4 0-2.5-1.1-2.5-2.5zm-34.9 50.1v-10.7c0-.7.6-1.3 1.3-1.3h24.2c.9 0 1.6.7 1.6 1.6v10c0 .9-.7 1.6-1.6 1.6-8.2 0-12.5 0-24.2 0-.7 0-1.3-.5-1.3-1.2zm49.2 7.3c0 1.4-1.1 2.5-2.5 2.5h-40.4c-1.4 0-2.5-1.1-2.5-2.5v-4.6h21.6c1.7 0 3.1-1.4 3.1-3.1v-10c0-1.7-1.4-3.1-3.1-3.1h-21.6v-35.2c0-1.4 1.1-2.5 2.5-2.5h27.1v11.8c0 2.2 1.8 4 4 4h11.8z"/></g></g><g fill="#fff"><path d="m17.67099 46.3808c.67285 0 1.19531.15869 1.56836.47559.37207.31689.55859.78125.55859 1.39258 0 .61182-.18652 1.0791-.55859 1.40137-.37305.32275-.89551.48389-1.56836.48389h-1.33496v1.85986c0 .06104-.02148.11377-.06641.1582-.04492.04492-.09766.06689-.1582.06689h-.67578c-.06152 0-.11426-.02197-.1582-.06689-.04492-.04443-.06738-.09717-.06738-.1582v-5.38818c0-.06104.02246-.11377.06738-.1582.04395-.04443.09668-.06689.1582-.06689h2.23535zm-1.33496 2.71094h1.29297c.31738 0 .57031-.06299.75879-.18799.18945-.125.28418-.34326.28418-.65479 0-.31104-.09473-.52637-.28418-.64648-.18848-.11914-.44141-.1792-.75879-.1792h-1.29297z"/><path d="m22.99228 46.3808c.41113 0 .76855.0542 1.07129.1626s.55566.2627.75879.46289.3584.44189.46777.72559c.1084.28369.17285.60059.19531.95117.02246.41113.02246.82275 0 1.23438-.02246.3501-.08691.66699-.19531.95068-.10938.28369-.26367.52539-.46289.72559-.2002.2002-.44922.35449-.74707.46289s-.64648.1626-1.04688.1626h-2.10156c-.06152 0-.11426-.02197-.1582-.06689-.04492-.04443-.06738-.09717-.06738-.1582v-5.38818c0-.06104.02246-.11377.06738-.1582.04395-.04443.09668-.06689.1582-.06689h2.06055zm1.36719 2.30224c-.01074-.17822-.0459-.34326-.10449-.49658-.05762-.15283-.14453-.28613-.25781-.40039-.11426-.11377-.25781-.20264-.42969-.2666-.17285-.06396-.37793-.09619-.61719-.09619h-1.11816v3.75342h1.16016c.22754 0 .4248-.03223.5918-.09619.16699-.06348.30566-.15137.41699-.2627.11133-.11084.19629-.24463.25391-.40039.05859-.15527.09375-.32227.10449-.5.02245-.41162.02245-.82324-.00001-1.23438z"/><path d="m30.36435 46.3808c.06152 0 .11426.02246.15918.06689.04395.04443.06641.09717.06641.1582v.59229c0 .06104-.02246.11426-.06641.15869-.04492.04443-.09766.06641-.15918.06641h-2.66016v1.61816h2.49414c.06055 0 .11328.02246.1582.06689.04395.04443.06641.09717.06641.1582v.59229c0 .06104-.02246.11426-.06641.15869-.04492.04443-.09766.06641-.1582.06641h-2.49414v1.91016c0 .06104-.02246.11377-.06641.1582-.04492.04492-.09766.06689-.15918.06689h-.67479c-.06152 0-.11426-.02197-.15918-.06689-.04395-.04443-.06641-.09717-.06641-.1582v-5.38818c0-.06104.02246-.11377.06641-.1582.04492-.04443.09766-.06689.15918-.06689h3.56054z"/></g></g></svg>