<svg id="Filled" height="512" viewBox="0 0 512 512" width="512" xmlns="http://www.w3.org/2000/svg"><path d="m392 488h-272a48 48 0 0 1 -48-48v-368a48 48 0 0 1 48-48h224l96 96v320a48 48 0 0 1 -48 48z" fill="#8690fa"/><path d="m72 360h368a0 0 0 0 1 0 0v80a48 48 0 0 1 -48 48h-272a48 48 0 0 1 -48-48v-80a0 0 0 0 1 0 0z" fill="#cfd2fc"/><path d="m440 120h-48a48 48 0 0 1 -48-48v-48z" fill="#cfd2fc"/><path d="m349.657 18.343a8 8 0 0 0 -5.657-2.343h-224a56.063 56.063 0 0 0 -56 56v368a56.063 56.063 0 0 0 56 56h272a56.063 56.063 0 0 0 56-56v-320a8 8 0 0 0 -2.343-5.657zm2.343 24.97 68.687 68.687h-28.687a40.045 40.045 0 0 1 -40-40zm-232-11.313h216v40a56.063 56.063 0 0 0 56 56h40v224h-352v-280a40.045 40.045 0 0 1 40-40zm272 448h-272a40.045 40.045 0 0 1 -40-40v-72h352v72a40.045 40.045 0 0 1 -40 40z"/><path d="m208 384h-32a8 8 0 0 0 0 16h8v56a8 8 0 0 0 16 0v-56h8a8 8 0 0 0 0-16z"/><path d="m336 384h-32a8 8 0 0 0 0 16h8v56a8 8 0 0 0 16 0v-56h8a8 8 0 0 0 0-16z"/><path d="m275.578 384.845a8 8 0 0 0 -10.733 3.577l-8.845 17.69-8.845-17.69a8 8 0 0 0 -14.31 7.156l14.211 28.422-14.211 28.422a8 8 0 1 0 14.31 7.156l8.845-17.69 8.845 17.69a8 8 0 1 0 14.31-7.156l-14.211-28.422 14.211-28.422a8 8 0 0 0 -3.577-10.733z"/><path d="m136 208h240a8 8 0 0 0 0-16h-240a8 8 0 0 0 0 16z"/><path d="m136 240h240a8 8 0 0 0 0-16h-240a8 8 0 0 0 0 16z"/><path d="m136 272h240a8 8 0 0 0 0-16h-240a8 8 0 0 0 0 16z"/><path d="m136 176h240a8 8 0 0 0 0-16h-240a8 8 0 0 0 0 16z"/><path d="m136 304h192a8 8 0 0 0 0-16h-192a8 8 0 0 0 0 16z"/><path d="m136 144h72a8 8 0 0 0 0-16h-72a8 8 0 0 0 0 16z"/></svg>