<svg height="512pt" viewBox="0 -31 512 512" width="512pt" xmlns="http://www.w3.org/2000/svg"><path d="m512 90v270l-48.601562 19.800781h-414.796876l-48.601562-19.800781v-270l27.300781-16.800781h448.101563zm0 0" fill="#ff641a"/><path d="m512 90v270l-48.601562 19.800781h-207.398438v-306.601562h219.402344zm0 0" fill="#f03800"/><path d="m497 0h-482c-8.402344 0-15 6.597656-15 15v75h512v-75c0-8.402344-6.597656-15-15-15zm-376 60h-91v-30h91zm120 0h-90v-30h90zm120 0h-90v-30h90zm121 0h-91v-30h91zm0 0" fill="#596c76"/><path d="m0 360v75c0 8.398438 6.597656 15 15 15h482c8.402344 0 15-6.601562 15-15v-75zm121 60h-91v-30h91zm120 0h-90v-30h90zm120 0h-90v-30h90zm121 0h-91v-30h91zm0 0" fill="#596c76"/><path d="m497 0h-241v90h256v-75c0-8.402344-6.597656-15-15-15zm-136 60h-90v-30h90zm121 0h-91v-30h91zm0 0" fill="#474f54"/><path d="m256 360v90h241c8.402344 0 15-6.601562 15-15v-75zm105 60h-90v-30h90zm121 0h-91v-30h91zm0 0" fill="#474f54"/><path d="m339.402344 212.398438-83.402344-55.5-51.597656-34.5c-4.800782-3-10.503906-3.300782-15.601563-.597657-4.800781 2.695313-7.800781 7.796875-7.800781 13.199219v180c0 5.398438 3 10.496094 7.800781 13.199219 4.796875 2.699219 10.800781 2.398437 15.601563-.601563l51.597656-34.5 83.402344-55.496094c4.195312-3 6.597656-7.503906 6.597656-12.601562 0-5.101562-2.402344-9.601562-6.597656-12.601562zm0 0" fill="#e0f4ff"/><path d="m339.402344 237.597656-83.402344 55.5v-136.199218l83.402344 55.5c4.195312 3 6.597656 7.5 6.597656 12.601562 0 5.097656-2.402344 9.601562-6.597656 12.597656zm0 0" fill="#bbdcff"/></svg>